{
	"asset":{
		"generator":"Khronos glTF Blender I/O v4.4.56",
		"version":"2.0"
	},
	"scene":0,
	"scenes":[
		{
			"name":"Scene",
			"nodes":[
				8
			]
		}
	],
	"nodes":[
		{
			"mesh":0,
			"name":"Object_2"
		},
		{
			"mesh":1,
			"name":"Object_3"
		},
		{
			"mesh":2,
			"name":"Object_4"
		},
		{
			"mesh":3,
			"name":"Object_5"
		},
		{
			"mesh":4,
			"name":"Object_6"
		},
		{
			"mesh":5,
			"name":"Object_7"
		},
		{
			"mesh":6,
			"name":"Object_8"
		},
		{
			"children":[
				0,
				1,
				2,
				3,
				4,
				5,
				6
			],
			"name":"ROBO v4.obj.cleaner.materialmerger.gles"
		},
		{
			"children":[
				7
			],
			"name":"Sketchfab_model",
			"rotation":[
				-0.9999997615814209,
				0,
				0,
				0.0007244948646984994
			]
		}
	],
	"materials":[
		{
			"doubleSided":true,
			"name":"Acetal_Resin_White_2",
			"pbrMetallicRoughness":{
				"baseColorFactor":[
					0.044895049184560776,
					0.044895049184560776,
					0.044895049184560776,
					1
				],
				"metallicFactor":0,
				"roughnessFactor":0.4000000059604645
			}
		},
		{
			"doubleSided":true,
			"name":"Aluminum_-_Anodized_Glossy_Grey",
			"pbrMetallicRoughness":{
				"baseColorFactor":[
					0.9642242193222046,
					1,
					0.9889382123947144,
					1
				],
				"metallicFactor":0.4514285624027252,
				"roughnessFactor":0.35428571701049805
			}
		},
		{
			"doubleSided":true,
			"name":"ABS_White",
			"pbrMetallicRoughness":{
				"baseColorFactor":[
					0.02041955478489399,
					0.018210362643003464,
					0.037097107619047165,
					1
				],
				"metallicFactor":0,
				"roughnessFactor":0.4000000059604645
			}
		},
		{
			"doubleSided":true,
			"name":"Acetal_Resin_White",
			"pbrMetallicRoughness":{
				"baseColorFactor":[
					0.04633452370762825,
					0.02812553197145462,
					0.0827801376581192,
					1
				],
				"metallicFactor":0,
				"roughnessFactor":0.4000000059604645
			}
		},
		{
			"doubleSided":true,
			"name":"Acetal_Resin_White_1",
			"pbrMetallicRoughness":{
				"baseColorFactor":[
					0.7084394693374634,
					0.42387789487838745,
					0.011313031427562237,
					1
				],
				"metallicFactor":0,
				"roughnessFactor":0.3845117390155792
			}
		},
		{
			"doubleSided":true,
			"name":"Aluminum_-_Anodized_Rough_Grey",
			"pbrMetallicRoughness":{
				"baseColorFactor":[
					0.35811084508895874,
					0.35811084508895874,
					0.35811084508895874,
					1
				],
				"metallicFactor":0.8295711278915405,
				"roughnessFactor":0.29635995626449585
			}
		}
	],
	"meshes":[
		{
			"name":"Object_0",
			"primitives":[
				{
					"attributes":{
						"POSITION":0,
						"NORMAL":1,
						"TEXCOORD_0":2
					},
					"indices":3,
					"material":0
				}
			]
		},
		{
			"name":"Object_1",
			"primitives":[
				{
					"attributes":{
						"POSITION":4,
						"NORMAL":5,
						"TEXCOORD_0":6
					},
					"indices":7,
					"material":1
				}
			]
		},
		{
			"name":"Object_2",
			"primitives":[
				{
					"attributes":{
						"POSITION":8,
						"NORMAL":9,
						"TEXCOORD_0":10
					},
					"indices":11,
					"material":2
				}
			]
		},
		{
			"name":"Object_3",
			"primitives":[
				{
					"attributes":{
						"POSITION":12,
						"NORMAL":13,
						"TEXCOORD_0":14
					},
					"indices":15,
					"material":3
				}
			]
		},
		{
			"name":"Object_4",
			"primitives":[
				{
					"attributes":{
						"POSITION":16,
						"NORMAL":17,
						"TEXCOORD_0":18
					},
					"indices":19,
					"material":3
				}
			]
		},
		{
			"name":"Object_5",
			"primitives":[
				{
					"attributes":{
						"POSITION":20,
						"NORMAL":21,
						"TEXCOORD_0":22
					},
					"indices":23,
					"material":4
				}
			]
		},
		{
			"name":"Object_6",
			"primitives":[
				{
					"attributes":{
						"POSITION":24,
						"NORMAL":25,
						"TEXCOORD_0":26
					},
					"indices":27,
					"material":5
				}
			]
		}
	],
	"accessors":[
		{
			"bufferView":0,
			"componentType":5126,
			"count":1019,
			"max":[
				25.892257690429688,
				16.907386779785156,
				1.9539560079574585
			],
			"min":[
				-22.802148818969727,
				-19.352733612060547,
				-0.027118999511003494
			],
			"type":"VEC3"
		},
		{
			"bufferView":1,
			"componentType":5126,
			"count":1019,
			"type":"VEC3"
		},
		{
			"bufferView":2,
			"componentType":5126,
			"count":1019,
			"type":"VEC2"
		},
		{
			"bufferView":3,
			"componentType":5123,
			"count":4050,
			"type":"SCALAR"
		},
		{
			"bufferView":4,
			"componentType":5126,
			"count":588,
			"max":[
				4.94755220413208,
				-14.728421211242676,
				2.082782030105591
			],
			"min":[
				-0.7097139954566956,
				-19.289108276367188,
				0.21679499745368958
			],
			"type":"VEC3"
		},
		{
			"bufferView":5,
			"componentType":5126,
			"count":588,
			"type":"VEC3"
		},
		{
			"bufferView":6,
			"componentType":5126,
			"count":588,
			"type":"VEC2"
		},
		{
			"bufferView":7,
			"componentType":5123,
			"count":2508,
			"type":"SCALAR"
		},
		{
			"bufferView":8,
			"componentType":5126,
			"count":8250,
			"max":[
				38.484039306640625,
				67.67467498779297,
				45.006797790527344
			],
			"min":[
				-35.470916748046875,
				-31.52910804748535,
				1.1804399490356445
			],
			"type":"VEC3"
		},
		{
			"bufferView":9,
			"componentType":5126,
			"count":8250,
			"type":"VEC3"
		},
		{
			"bufferView":10,
			"componentType":5126,
			"count":8250,
			"type":"VEC2"
		},
		{
			"bufferView":11,
			"componentType":5123,
			"count":34230,
			"type":"SCALAR"
		},
		{
			"bufferView":12,
			"componentType":5126,
			"count":9116,
			"max":[
				51.33356857299805,
				70.37168884277344,
				37
			],
			"min":[
				-48.17953109741211,
				-40.226783752441406,
				5
			],
			"type":"VEC3"
		},
		{
			"bufferView":13,
			"componentType":5126,
			"count":9116,
			"type":"VEC3"
		},
		{
			"bufferView":14,
			"componentType":5126,
			"count":9116,
			"type":"VEC2"
		},
		{
			"bufferView":15,
			"componentType":5123,
			"count":37782,
			"type":"SCALAR"
		},
		{
			"bufferView":16,
			"componentType":5126,
			"count":2196,
			"max":[
				47.46966552734375,
				11.01777458190918,
				34.19632339477539
			],
			"min":[
				-44.31562805175781,
				-15.084789276123047,
				11.189229965209961
			],
			"type":"VEC3"
		},
		{
			"bufferView":17,
			"componentType":5126,
			"count":2196,
			"type":"VEC3"
		},
		{
			"bufferView":18,
			"componentType":5126,
			"count":2196,
			"type":"VEC2"
		},
		{
			"bufferView":19,
			"componentType":5123,
			"count":10356,
			"type":"SCALAR"
		},
		{
			"bufferView":20,
			"componentType":5126,
			"count":8552,
			"max":[
				50.899635314941406,
				11.20655632019043,
				34.48995590209961
			],
			"min":[
				-47.7455940246582,
				-39.76899719238281,
				-0.0019120000069960952
			],
			"type":"VEC3"
		},
		{
			"bufferView":21,
			"componentType":5126,
			"count":8552,
			"type":"VEC3"
		},
		{
			"bufferView":22,
			"componentType":5126,
			"count":8552,
			"type":"VEC2"
		},
		{
			"bufferView":23,
			"componentType":5123,
			"count":31692,
			"type":"SCALAR"
		},
		{
			"bufferView":24,
			"componentType":5126,
			"count":2378,
			"max":[
				38.88572692871094,
				20.29194450378418,
				35.19343185424805
			],
			"min":[
				-35.731685638427734,
				-22.903953552246094,
				1
			],
			"type":"VEC3"
		},
		{
			"bufferView":25,
			"componentType":5126,
			"count":2378,
			"type":"VEC3"
		},
		{
			"bufferView":26,
			"componentType":5126,
			"count":2378,
			"type":"VEC2"
		},
		{
			"bufferView":27,
			"componentType":5123,
			"count":10872,
			"type":"SCALAR"
		}
	],
	"bufferViews":[
		{
			"buffer":0,
			"byteLength":12228,
			"byteOffset":0,
			"target":34962
		},
		{
			"buffer":0,
			"byteLength":12228,
			"byteOffset":12228,
			"target":34962
		},
		{
			"buffer":0,
			"byteLength":8152,
			"byteOffset":24456,
			"target":34962
		},
		{
			"buffer":0,
			"byteLength":8100,
			"byteOffset":32608,
			"target":34963
		},
		{
			"buffer":0,
			"byteLength":7056,
			"byteOffset":40708,
			"target":34962
		},
		{
			"buffer":0,
			"byteLength":7056,
			"byteOffset":47764,
			"target":34962
		},
		{
			"buffer":0,
			"byteLength":4704,
			"byteOffset":54820,
			"target":34962
		},
		{
			"buffer":0,
			"byteLength":5016,
			"byteOffset":59524,
			"target":34963
		},
		{
			"buffer":0,
			"byteLength":99000,
			"byteOffset":64540,
			"target":34962
		},
		{
			"buffer":0,
			"byteLength":99000,
			"byteOffset":163540,
			"target":34962
		},
		{
			"buffer":0,
			"byteLength":66000,
			"byteOffset":262540,
			"target":34962
		},
		{
			"buffer":0,
			"byteLength":68460,
			"byteOffset":328540,
			"target":34963
		},
		{
			"buffer":0,
			"byteLength":109392,
			"byteOffset":397000,
			"target":34962
		},
		{
			"buffer":0,
			"byteLength":109392,
			"byteOffset":506392,
			"target":34962
		},
		{
			"buffer":0,
			"byteLength":72928,
			"byteOffset":615784,
			"target":34962
		},
		{
			"buffer":0,
			"byteLength":75564,
			"byteOffset":688712,
			"target":34963
		},
		{
			"buffer":0,
			"byteLength":26352,
			"byteOffset":764276,
			"target":34962
		},
		{
			"buffer":0,
			"byteLength":26352,
			"byteOffset":790628,
			"target":34962
		},
		{
			"buffer":0,
			"byteLength":17568,
			"byteOffset":816980,
			"target":34962
		},
		{
			"buffer":0,
			"byteLength":20712,
			"byteOffset":834548,
			"target":34963
		},
		{
			"buffer":0,
			"byteLength":102624,
			"byteOffset":855260,
			"target":34962
		},
		{
			"buffer":0,
			"byteLength":102624,
			"byteOffset":957884,
			"target":34962
		},
		{
			"buffer":0,
			"byteLength":68416,
			"byteOffset":1060508,
			"target":34962
		},
		{
			"buffer":0,
			"byteLength":63384,
			"byteOffset":1128924,
			"target":34963
		},
		{
			"buffer":0,
			"byteLength":28536,
			"byteOffset":1192308,
			"target":34962
		},
		{
			"buffer":0,
			"byteLength":28536,
			"byteOffset":1220844,
			"target":34962
		},
		{
			"buffer":0,
			"byteLength":19024,
			"byteOffset":1249380,
			"target":34962
		},
		{
			"buffer":0,
			"byteLength":21744,
			"byteOffset":1268404,
			"target":34963
		}
	],
	"buffers":[
		{
			"byteLength":1290148,
			"uri":"Untitled.bin"
		}
	]
}
